<svg xmlns="http://www.w3.org/2000/svg" width="75.277" height="28" viewBox="0 0 75.277 28"><defs><style>.a{fill:#3a3a3a;}.b,.c{fill:#fff;}.c{opacity:0.2;}</style></defs><g transform="translate(-682 -10)"><path class="a" d="M10,14V10H7A3,3,0,0,1,4,7H4V4h6V0H0V7a6.745,6.745,0,0,0,2.05,4.95A6.745,6.745,0,0,0,7,14h3Z" transform="translate(716 17.5)"/><path class="a" d="M4,14V7A3,3,0,0,1,7,4h3V0H7A6.745,6.745,0,0,0,2.05,2.05,6.745,6.745,0,0,0,0,7H0v7Z" transform="translate(727.056 17.5)"/><path class="a" d="M4,14V0H0V14Z" transform="translate(738.281 17.5)"/><path class="a" d="M7,14a6.745,6.745,0,0,0,4.95-2.05A6.745,6.745,0,0,0,14,7a6.745,6.745,0,0,0-2.05-4.95A6.745,6.745,0,0,0,7,0,6.745,6.745,0,0,0,2.05,2.05,6.745,6.745,0,0,0,0,7a6.745,6.745,0,0,0,2.05,4.95A6.745,6.745,0,0,0,7,14Z" transform="translate(743.277 17.5)"/><path class="b" d="M3,6A2.89,2.89,0,0,1,.88,5.12,2.89,2.89,0,0,1,0,3,2.89,2.89,0,0,1,.88.88,2.89,2.89,0,0,1,3,0,2.89,2.89,0,0,1,5.12.88,2.89,2.89,0,0,1,6,3a2.89,2.89,0,0,1-.88,2.12A2.89,2.89,0,0,1,3,6Z" transform="translate(747.277 21.5)"/><g transform="translate(682 10)"><path class="a" d="M0,14C0,3.5,3.5,0,14,0S28,3.5,28,14,24.5,28,14,28,0,24.5,0,14"/><circle class="c" cx="11.2" cy="11.2" r="11.2" transform="translate(2.8 2.8)"/><circle class="c" cx="7" cy="7" r="7" transform="translate(7 7)"/><path class="b" d="M12.359,1.076,7.929,8.031H9.211A.7.7,0,0,1,9.64,9.284l-8.511,6.6A.7.7,0,0,1,.1,14.969l4.278-6.98H3a.7.7,0,0,1-.421-1.26L11.348.14a.7.7,0,0,1,1.011.936Z" transform="translate(7.734 5.969)"/></g></g></svg>